#!OML:ASF H:\MichaelJackson\Top Level 1\Subject 1\Session 1\male.ASF
:FULLY-SPECIFIED
:DEGREES
484
root 27.3097 16.3667 -29.0188 -173.942 -20.0369 -169.891
lowerback 0.920514 -0.954537 4.61877
upperback 1.46365 -1.30903 0.710104
thorax 0.902605 -0.630628 -1.85598
lowerneck -10.4721 -10.3023 4.0714
upperneck 15.1055 -15.7837 3.36889
head 6.29415 -7.32475 -0.914949
rclavicle 5.56597e-014 -5.32743e-014
rhumerus -40.042 -9.83891 -83.8126
rradius 65.6293
rwrist 9.23024
rhand -29.9232 -17.2621
rfingers 7.12502
rthumb -3.2433 -407.217
lclavicle 5.56597e-014 -5.32743e-014
lhumerus -46.4283 -13.2715 91.1867
lradius 39.2082
lwrist 8.57818
lhand -8.52163 7.1446
lfingers 7.12502
lthumb 17.4069 36.3852
rfemur -22.4705 -9.09882 29.647
rtibia 43.0989
rfoot -19.3432 -9.06913
rtoes 4.35923
lfemur -33.2551 19.2038 -17.0088
ltibia 50.4837
lfoot -22.4197 0.698455
ltoes 29.1136
485
root 27.3707 16.3635 -29.0131 -174.052 -20.5102 -169.503
lowerback 0.864645 -0.817587 4.91327
upperback 1.49397 -1.13648 0.818518
thorax 0.974101 -0.542265 -1.91121
lowerneck -10.6374 -10.3668 4.14412
upperneck 14.8741 -15.8681 3.46692
head 6.25105 -7.35422 -0.903139
rclavicle -3.24019e-014 -6.36111e-015
rhumerus -39.7273 -9.89625 -83.9441
rradius 64.1956
rwrist 11.4764
rhand -30.3684 -18.2661
rfingers 7.12502
rthumb -3.67324 -408.214
lclavicle -3.24019e-014 -6.36111e-015
lhumerus -46.7094 -12.7108 91.2903
lradius 38.7602
lwrist 8.57631
lhand -7.96005 6.61115
lfingers 7.12502
lthumb 17.9473 35.8031
rfemur -22.1213 -9.56608 30.2193
rtibia 42.3067
rfoot -19.4286 -9.60787
rtoes 2.38586
lfemur -33.5864 18.3797 -16.3133
ltibia 50.7772
lfoot -22.2923 1.03492
ltoes 28.7507
486
root 27.4286 16.3615 -29.0051 -174.153 -20.8478 -169.132
lowerback 0.829599 -0.650621 5.2051
upperback 1.54141 -0.924805 0.921399
thorax 1.05555 -0.434061 -1.97001
lowerneck -10.8068 -10.421 4.22049
upperneck 14.5548 -15.9304 3.58431
head 6.18198 -7.3743 -0.88097
rclavicle -8.74653e-015 1.82882e-014
rhumerus -39.4018 -9.75155 -84.1163
rradius 62.9055
rwrist 13.478
rhand -30.7831 -19.1796
rfingers 7.12502
rthumb -4.07373 -409.12
lclavicle -8.74653e-015 1.82882e-014
lhumerus -47.039 -12.2009 91.4701
lradius 38.5445
lwrist 8.95371
lhand -7.55448 6.25852
lfingers 7.12502
lthumb 18.3375 35.4142
rfemur -21.8509 -10.1139 30.7619
rtibia 41.6064
rfoot -19.4362 -10.12
rtoes -0.313529
lfemur -33.9004 17.649 -15.6583
ltibia 51.0525
lfoot -22.1674 1.41903
ltoes 28.4776
487
root 27.4836 16.3606 -28.9948 -174.238 -21.0409 -168.793
lowerback 0.809495 -0.452763 5.47448
upperback 1.58558 -0.671474 1.01602
thorax 1.12998 -0.305341 -2.02396
lowerneck -10.964 -10.4513 4.30649
upperneck 14.2286 -15.9618 3.69963
head 6.1079 -7.3809 -0.857368
rclavicle 1.66979e-014 -8.74653e-015
rhumerus -39.0844 -9.40773 -84.3216
rradius 61.7087
rwrist 15.1991
rhand -31.1822 -19.9735
rfingers 7.12502
rthumb -4.45911 -409.907
lclavicle 1.66979e-014 -8.74653e-015
lhumerus -47.4638 -11.7581 91.7493
lradius 38.5665
lwrist 9.68832
lhand -7.36782 6.09671
lfingers 7.12502
lthumb 18.517 35.2354
rfemur -21.6494 -10.6927 31.2683
rtibia 40.9887
rfoot -19.4141 -10.5843
rtoes -3.55747
lfemur -34.1776 17.0182 -15.071
ltibia 51.2795
lfoot -22.0459 1.91679
ltoes 28.276
488
root 27.5358 16.3612 -28.9826 -174.296 -21.0849 -168.504
lowerback 0.798629 -0.222806 5.68801
upperback 1.62471 -0.374545 1.10134
thorax 1.19912 -0.155394 -2.05549
lowerneck -11.1122 -10.4605 4.40005
upperneck 13.9211 -15.9689 3.80739
head 6.03726 -7.37667 -0.835452
rclavicle 7.45443e-014 1.59028e-015
rhumerus -38.7306 -8.81933 -84.5548
rradius 60.494
rwrist 16.6188
rhand -31.5783 -20.6243
rfingers 7.12502
rthumb -4.84159 -410.549
lclavicle 7.45443e-014 1.59028e-015
lhumerus -47.9871 -11.3996 92.1414
lradius 38.8131
lwrist 10.6975
lhand -7.44308 6.09137
lfingers 7.12502
lthumb 18.4446 35.2369
rfemur -21.5025 -11.2407 31.7246
rtibia 40.4431
rfoot -19.417 -10.9697
rtoes -7.03555
lfemur -34.4007 16.4799 -14.5733
ltibia 51.4378
lfoot -21.9347 2.57079
ltoes 28.0726
489
root 27.5857 16.3629 -28.9684 -174.31 -20.9838 -168.287
lowerback 0.79667 0.0179824 5.85555
upperback 1.65302 -0.0606416 1.1559
thorax 1.25458 0.0027983 -2.09221
lowerneck -11.2314 -10.4423 4.49277
upperneck 13.6134 -15.9381 3.90888
head 5.96132 -7.35637 -0.810574
rclavicle 2.08724e-014 1.11319e-014
rhumerus -38.3631 -8.07782 -84.8513
rradius 59.3155
rwrist 17.8658
rhand -31.9782 -21.1765
rfingers 7.12502
rthumb -5.22771 -411.092
lclavicle 2.08724e-014 1.11319e-014
lhumerus -48.6028 -11.0971 92.6065
lradius 39.2589
lwrist 11.871
lhand -7.77629 6.18892
lfingers 7.12502
lthumb 18.1241 35.3645
rfemur -21.4172 -11.6939 32.115
rtibia 39.9692
rfoot -19.5059 -11.2558
rtoes -10.299
lfemur -34.5671 15.9937 -14.1784
ltibia 51.5146
lfoot -21.8388 3.39128
ltoes 27.8679
490
root 27.634 16.3651 -28.9522 -174.284 -20.745 -168.129
lowerback 0.787683 0.245907 5.98676
upperback 1.68378 0.236709 1.18402
thorax 1.31621 0.153191 -2.13527
lowerneck -11.3102 -10.385 4.57526
upperneck 13.2857 -15.8465 3.999
head 5.87222 -7.3104 -0.779685
rclavicle 3.20043e-014 2.54444e-014
rhumerus -37.9489 -7.18493 -85.2375
rradius 58.1554
rwrist 19.0487
rhand -32.3571 -21.7073
rfingers 7.12502
rthumb -5.5935 -411.614
lclavicle 3.20043e-014 2.54444e-014
lhumerus -49.2709 -10.784 93.1008
lradius 39.8565
lwrist 13.0659
lhand -8.37172 6.29326
lfingers 7.12502
lthumb 17.5511 35.521
rfemur -21.3887 -11.9819 32.461
rtibia 39.5698
rfoot -19.715 -11.458
rtoes -13.0784
lfemur -34.674 15.5221 -13.8505
ltibia 51.5132
lfoot -21.7485 4.36902
ltoes 27.627
491
root 27.6809 16.3676 -28.9338 -174.2 -20.3983 -168.075
lowerback 0.790962 0.459581 6.05003
upperback 1.70236 0.519393 1.16922
thorax 1.35763 0.29603 -2.18422
lowerneck -11.3499 -10.3029 4.64092
upperneck 12.9453 -15.7156 4.08575
head 5.77368 -7.24852 -0.74174
rclavicle 1.19271e-015 2.06736e-014
rhumerus -37.5082 -6.18095 -85.7037
rradius 56.9922
rwrist 20.2327
rhand -32.7312 -22.2494
rfingers 7.12502
rthumb -5.9547 -412.146
lclavicle 1.19271e-015 2.06736e-014
lhumerus -49.9845 -10.4768 93.6172
lradius 40.5627
lwrist 14.1734
lhand -9.11904 6.36459
lfingers 7.12502
lthumb 16.8318 35.6551
rfemur -21.4321 -12.0971 32.7223
rtibia 39.2572
rfoot -20.0613 -11.6218
rtoes -15.1659
lfemur -34.7308 15.003 -13.6198
ltibia 51.4413
lfoot -21.6627 5.47123
ltoes 27.3797
